<svg width="36" height="37" viewBox="0 0 36 37" fill="none" xmlns="http://www.w3.org/2000/svg">
<path d="M32.2731 27.8829C32.2731 28.4305 32.1556 28.9934 31.9059 29.541C31.6562 30.0886 31.333 30.6058 30.907 31.0926C30.1872 31.914 29.394 32.5073 28.498 32.8876C27.6166 33.2679 26.6618 33.4656 25.6335 33.4656C24.1352 33.4656 22.5341 33.1005 20.8448 32.3552C19.1555 31.6098 17.4663 30.6058 15.7917 29.3432C14.1024 28.0655 12.5013 26.6508 10.9736 25.084C9.46055 23.502 8.09444 21.8439 6.87523 20.1097C5.6707 18.3756 4.7012 16.6415 3.99611 14.9226C3.29102 13.1884 2.93848 11.5304 2.93848 9.94834C2.93848 8.91395 3.11475 7.92519 3.46729 7.01249C3.81984 6.08457 4.37803 5.23272 5.15657 4.47213C6.09669 3.5138 7.12495 3.04224 8.21196 3.04224C8.62326 3.04224 9.03456 3.13351 9.4018 3.31605C9.78372 3.49859 10.1216 3.7724 10.386 4.1679L13.7939 9.14212C14.0583 9.52241 14.2493 9.87228 14.3815 10.2069C14.5137 10.5264 14.5871 10.8458 14.5871 11.1349C14.5871 11.4999 14.4843 11.865 14.2787 12.2149C14.0877 12.5648 13.8086 12.9298 13.4561 13.2949L12.3397 14.4966C12.1781 14.664 12.1046 14.8617 12.1046 15.1051C12.1046 15.2268 12.1193 15.3333 12.1487 15.455C12.1928 15.5767 12.2368 15.6679 12.2662 15.7592C12.5306 16.2612 12.986 16.9153 13.6323 17.7063C14.2934 18.4973 14.9984 19.3035 15.7623 20.1097C16.5555 20.916 17.3194 21.6613 18.0979 22.3459C18.8617 23.0152 19.4934 23.4715 19.9928 23.7453C20.0663 23.7758 20.1544 23.8214 20.2572 23.867C20.3748 23.9127 20.4923 23.9279 20.6245 23.9279C20.8742 23.9279 21.0652 23.8366 21.2267 23.6693L22.3431 22.5284C22.7104 22.1481 23.0629 21.8591 23.4008 21.6765C23.7386 21.4636 24.0765 21.3571 24.4437 21.3571C24.7228 21.3571 25.0166 21.418 25.3398 21.5549C25.6629 21.6918 26.0008 21.8895 26.368 22.1481L31.2302 25.7229C31.6121 25.9967 31.8765 26.3161 32.0381 26.6964C32.185 27.0767 32.2731 27.457 32.2731 27.8829Z" fill="#EE5830"/>
</svg>
