<svg width="29" height="36" viewBox="0 0 29 36" fill="none" xmlns="http://www.w3.org/2000/svg">
<path d="M14.4935 17.513C15.4899 17.513 16.3432 17.1697 17.0534 16.4832C17.7636 15.7967 18.1181 14.9724 18.1169 14.0104C18.1169 13.0472 17.7618 12.2223 17.0516 11.5358C16.3414 10.8493 15.4887 10.5066 14.4935 10.5078C13.4971 10.5078 12.6438 10.851 11.9336 11.5376C11.2234 12.2241 10.8689 13.0483 10.8701 14.0104C10.8701 14.9736 11.2252 15.7985 11.9354 16.485C12.6456 17.1715 13.4983 17.5142 14.4935 17.513ZM14.4935 35.026C9.63214 31.0272 6.00152 27.3133 3.60164 23.8842C1.20175 20.4552 0.00120779 17.2806 0 14.3606C0 9.9824 1.4572 6.4944 4.3716 3.89664C7.28601 1.29888 10.66 0 14.4935 0C18.3282 0 21.7028 1.29888 24.6172 3.89664C27.5316 6.4944 28.9882 9.9824 28.987 14.3606C28.987 17.2795 27.7865 20.454 25.3854 23.8842C22.9843 27.3144 19.3537 31.0283 14.4935 35.026Z" fill="#EE5830"/>
</svg>
