<svg width="36" height="37" viewBox="0 0 36 37" fill="none" xmlns="http://www.w3.org/2000/svg">
<path d="M24.9725 5.32422H10.2832C5.87635 5.32422 2.93848 7.60597 2.93848 12.9301V23.5782C2.93848 28.9023 5.87635 31.1841 10.2832 31.1841H24.9725C29.3793 31.1841 32.3172 28.9023 32.3172 23.5782V12.9301C32.3172 7.60597 29.3793 5.32422 24.9725 5.32422ZM25.6629 14.5881L21.0652 18.3911C20.0957 19.1973 18.8617 19.5928 17.6278 19.5928C16.3939 19.5928 15.1453 19.1973 14.1905 18.3911L9.59276 14.5881C9.1227 14.1926 9.04925 13.4625 9.41649 12.9757C9.79841 12.4889 10.4888 12.3977 10.9589 12.7932L15.5566 16.5961C16.673 17.524 18.568 17.524 19.6844 16.5961L24.2821 12.7932C24.7522 12.3977 25.4573 12.4737 25.8245 12.9757C26.2064 13.4625 26.133 14.1926 25.6629 14.5881Z" fill="#EE5830"/>
</svg>
