<svg width="33" height="22" viewBox="0 0 33 22" fill="none" xmlns="http://www.w3.org/2000/svg">
<path d="M13.2 15.7143L21.7635 11L13.2 6.28571V15.7143ZM32.274 3.41C32.4885 4.14857 32.637 5.13857 32.736 6.39571C32.8515 7.65286 32.901 8.73714 32.901 9.68L33 11C33 14.4414 32.736 16.9714 32.274 18.59C31.8615 20.0043 30.9045 20.9157 29.4195 21.3086C28.644 21.5129 27.225 21.6543 25.047 21.7486C22.902 21.8586 20.9385 21.9057 19.1235 21.9057L16.5 22C9.5865 22 5.28 21.7486 3.5805 21.3086C2.0955 20.9157 1.1385 20.0043 0.726 18.59C0.5115 17.8514 0.363 16.8614 0.264 15.6043C0.1485 14.3471 0.0989999 13.2629 0.0989999 12.32L0 11C0 7.55857 0.264 5.02857 0.726 3.41C1.1385 1.99571 2.0955 1.08429 3.5805 0.691429C4.356 0.487143 5.775 0.345714 7.953 0.251428C10.098 0.141428 12.0615 0.0942856 13.8765 0.0942856L16.5 0C23.4135 0 27.72 0.251429 29.4195 0.691429C30.9045 1.08429 31.8615 1.99571 32.274 3.41Z" fill="#EE5830"/>
</svg>
