<svg width="119" height="43" viewBox="0 0 119 43" fill="none" xmlns="http://www.w3.org/2000/svg">
<path d="M47.1003 22.2273L43.4258 28.5227L39.6895 22.2273H37.7788V32.3658H39.9452V26.4117L42.8675 31.2939H43.9075L46.8458 26.2812L46.8582 32.3658H49.0246L48.9962 22.2273H47.1003Z" fill="white"/>
<path d="M59.0017 27.1873C58.9115 27.1484 58.8164 27.1171 58.7213 27.0857C59.1103 26.8786 59.4253 26.6 59.6575 26.246C59.9132 25.8544 60.0429 25.3938 60.0429 24.8629C60.0429 24.071 59.7267 23.4347 59.0955 22.9515C58.4631 22.4683 57.5207 22.2273 56.2659 22.2273H51.3921V32.3658H56.5512C57.8616 32.3658 58.8547 32.1223 59.5303 31.6341C60.2047 31.1471 60.5419 30.4681 60.5419 29.5996C60.5419 29.011 60.406 28.5127 60.1355 28.1073C59.865 27.7019 59.4871 27.3957 59.0017 27.1873ZM55.9793 23.9944C56.5401 23.9944 56.9699 24.0936 57.27 24.2906C57.5689 24.4889 57.7184 24.7851 57.7184 25.1817C57.7184 25.5783 57.5689 25.8896 57.27 26.0866C56.9711 26.2849 56.5413 26.3841 55.9793 26.3841H53.6845V23.9944H55.9793ZM57.7406 30.3012C57.4318 30.4995 56.9773 30.5986 56.3795 30.5986H53.6857V28.0922H56.3795C56.9785 28.0922 57.4318 28.1964 57.7406 28.4035C58.0494 28.6106 58.2038 28.9269 58.2038 29.3523C58.2038 29.7778 58.0494 30.1029 57.7406 30.3012Z" fill="white"/>
<path d="M68.6368 22.2273H66.3271V32.3658H68.6368V22.2273Z" fill="white"/>
<path d="M77.8717 28.3784L72.9114 22.2273H71.002V32.3658H73.282V26.2121L78.257 32.3658H80.153V22.2273H77.8717V28.3784Z" fill="white"/>
<path d="M86.6795 29.4678L83.6448 22.2273H81.1499L85.4543 32.3658H87.7356L92.0535 22.2273H89.7599L86.6795 29.4678Z" fill="white"/>
<path d="M95.1747 28.1362H99.8064V26.3113H95.1747V24.1099H100.42V22.2273H92.8799V32.3658H100.606V30.4832H95.1747V28.1362Z" fill="white"/>
<path d="M108.8 27.2389C108.458 27.0268 108.08 26.8574 107.667 26.7319C107.254 26.6064 106.84 26.4947 106.426 26.398C106.013 26.3014 105.636 26.2048 105.293 26.1081C104.951 26.0115 104.675 25.8835 104.466 25.7241C104.258 25.5647 104.153 25.3551 104.153 25.094C104.153 24.8719 104.214 24.6761 104.338 24.5079C104.461 24.3397 104.665 24.2017 104.951 24.095C105.236 23.9896 105.601 23.9356 106.047 23.9356C106.493 23.9356 106.95 24.0008 107.416 24.1314C107.881 24.2619 108.347 24.4627 108.813 24.7326L109.525 22.9516C109.06 22.6529 108.522 22.4282 107.915 22.2776C107.306 22.1283 106.69 22.053 106.062 22.053C105.121 22.053 104.34 22.1961 103.718 22.4797C103.095 22.7646 102.63 23.1461 102.321 23.6243C102.012 24.1025 101.858 24.6309 101.858 25.2107C101.858 25.7517 101.965 26.196 102.179 26.5424C102.393 26.89 102.67 27.1699 103.013 27.3833C103.355 27.5954 103.733 27.7698 104.146 27.9041C104.559 28.0397 104.973 28.1526 105.387 28.2442C105.8 28.3359 106.177 28.4325 106.52 28.5342C106.862 28.6358 107.138 28.7664 107.347 28.9257C107.555 29.0851 107.66 29.2998 107.66 29.5696C107.66 29.783 107.594 29.97 107.462 30.1344C107.328 30.2988 107.122 30.4268 106.841 30.5184C106.561 30.6113 106.193 30.6565 105.737 30.6565C105.138 30.6565 104.547 30.5573 103.962 30.3603C103.378 30.162 102.872 29.9085 102.444 29.5997L101.66 31.3669C102.107 31.7145 102.695 31.9969 103.428 32.214C104.159 32.4312 104.925 32.5404 105.722 32.5404C106.672 32.5404 107.459 32.396 108.082 32.1061C108.704 31.8162 109.172 31.4346 109.486 30.9615C109.8 30.4883 109.956 29.9675 109.956 29.3977C109.956 28.8668 109.849 28.4275 109.635 28.0798C109.422 27.7322 109.144 27.4523 108.802 27.2389H108.8Z" fill="white"/>
<path d="M110.269 22.2273V24.1388H113.461V32.3658H115.77V24.1388H118.963V22.2273H110.269Z" fill="white"/>
<path d="M87.0587 37.9698C87.2822 37.7527 87.5478 37.5832 87.8541 37.4615C88.1616 37.341 88.4939 37.2795 88.8508 37.2795C89.2078 37.2795 89.5289 37.3385 89.829 37.4565C90.1304 37.5744 90.4083 37.7602 90.6652 38.015L91.2198 37.4514C90.9332 37.1251 90.5849 36.8791 90.1736 36.716C89.7623 36.5528 89.3091 36.47 88.815 36.47C88.321 36.47 87.88 36.5503 87.4749 36.7109C87.0698 36.8716 86.7165 37.0988 86.4152 37.3924C86.1138 37.6861 85.8804 38.03 85.7136 38.4229C85.5469 38.817 85.4629 39.25 85.4629 39.7219C85.4629 40.1938 85.5469 40.6268 85.7136 41.0209C85.8804 41.415 86.1126 41.7576 86.4102 42.0513C86.7079 42.345 87.0599 42.5721 87.465 42.7328C87.8701 42.8934 88.3148 42.9738 88.7965 42.9738C89.2374 42.9738 89.6648 42.906 90.0798 42.7692C90.4948 42.6324 90.8554 42.4316 91.1654 42.1655V39.6867H90.307V41.7526C90.1452 41.8605 89.9785 41.9471 89.8019 42.0073C89.4956 42.114 89.1744 42.1667 88.8409 42.1667C88.484 42.1667 88.153 42.1065 87.8491 41.9848C87.5453 41.863 87.281 41.6923 87.0587 41.4714C86.8351 41.2505 86.6622 40.9907 86.5399 40.6908C86.4176 40.3908 86.3571 40.0683 86.3571 39.7231C86.3571 39.378 86.4176 39.0466 86.5399 38.7467C86.6622 38.4467 86.8351 38.1882 87.0587 37.9698Z" fill="white"/>
<path d="M96.716 40.7032C97.1038 40.5275 97.4015 40.2753 97.6102 39.9452C97.8189 39.6151 97.9227 39.2198 97.9227 38.7604C97.9227 38.301 97.8189 37.9032 97.6102 37.5706C97.4015 37.238 97.1038 36.9832 96.716 36.8075C96.3282 36.6318 95.8613 36.5439 95.3129 36.5439H92.8735V42.9021H93.7665V40.9681H95.3129C95.45 40.9681 95.5834 40.9631 95.7106 40.9518L97.0569 42.9034H98.0314L96.5443 40.771C96.6024 40.7497 96.6629 40.7309 96.7172 40.7058L96.716 40.7032ZM95.2857 40.1949H93.7653V37.3334H95.2857C95.8576 37.3334 96.2911 37.4576 96.5863 37.7061C96.8815 37.9546 97.0285 38.3061 97.0285 38.7591C97.0285 39.2122 96.8815 39.5662 96.5863 39.8172C96.2911 40.0682 95.8576 40.1937 95.2857 40.1937V40.1949Z" fill="white"/>
<path d="M104.569 37.3937C104.267 37.1 103.917 36.8728 103.514 36.7122C103.111 36.5515 102.672 36.4712 102.195 36.4712C101.718 36.4712 101.269 36.5528 100.863 36.7172C100.458 36.8803 100.106 37.1088 99.8087 37.4025C99.511 37.6961 99.2788 38.04 99.1121 38.4341C98.9453 38.8282 98.8613 39.2575 98.8613 39.7243C98.8613 40.1912 98.9453 40.6205 99.1121 41.0146C99.2788 41.4086 99.511 41.7513 99.8087 42.0462C100.106 42.3399 100.46 42.5683 100.867 42.7315C101.276 42.8946 101.718 42.9775 102.195 42.9775C102.672 42.9775 103.111 42.8972 103.514 42.7365C103.917 42.5759 104.267 42.3487 104.569 42.055C104.869 41.7613 105.102 41.4187 105.265 41.0246C105.43 40.6305 105.511 40.1975 105.511 39.7256C105.511 39.2537 105.43 38.8207 105.265 38.4266C105.101 38.0338 104.869 37.6899 104.569 37.3962V37.3937ZM104.434 40.6945C104.312 40.9907 104.143 41.2505 103.924 41.4714C103.707 41.6923 103.451 41.8642 103.156 41.9847C102.861 42.1052 102.541 42.1667 102.195 42.1667C101.849 42.1667 101.521 42.1065 101.225 41.9847C100.93 41.8642 100.672 41.6923 100.452 41.4714C100.231 41.2505 100.059 40.992 99.9384 40.6945C99.8173 40.3971 99.7556 40.0745 99.7556 39.7231C99.7556 39.3717 99.8161 39.0479 99.9384 38.7517C100.061 38.4555 100.232 38.1969 100.452 37.9748C100.672 37.7539 100.93 37.5832 101.225 37.4614C101.521 37.341 101.843 37.2795 102.195 37.2795C102.547 37.2795 102.861 37.341 103.156 37.4614C103.451 37.5832 103.707 37.7539 103.924 37.9748C104.141 38.1957 104.312 38.4542 104.434 38.7517C104.556 39.0479 104.617 39.3729 104.617 39.7231C104.617 40.0732 104.555 40.3983 104.434 40.6945Z" fill="white"/>
<path d="M111.249 40.1222C111.249 40.83 111.096 41.3484 110.79 41.6759C110.482 42.0035 110.046 42.1667 109.481 42.1667C108.915 42.1667 108.486 42.0035 108.18 41.6759C107.873 41.3484 107.719 40.8313 107.719 40.1222V36.5439H106.825V40.1585C106.825 41.0785 107.061 41.7788 107.532 42.257C108.002 42.7352 108.649 42.9749 109.471 42.9749C110.292 42.9749 110.947 42.7352 111.415 42.257C111.883 41.7788 112.116 41.0798 112.116 40.1585V36.5439H111.249V40.1222Z" fill="white"/>
<path d="M118.686 37.5706C118.478 37.238 118.18 36.9832 117.792 36.8075C117.404 36.6318 116.937 36.5439 116.389 36.5439H113.95V42.9021H114.843V40.9769H116.389C116.937 40.9769 117.406 40.8877 117.792 40.7095C118.18 40.5313 118.478 40.2765 118.686 39.9464C118.895 39.6164 118.999 39.221 118.999 38.7617C118.999 38.3023 118.895 37.9044 118.686 37.5718V37.5706ZM117.664 39.8134C117.369 40.0619 116.935 40.1849 116.363 40.1849H114.843V37.3334H116.363C116.935 37.3334 117.369 37.4576 117.664 37.7061C117.959 37.9546 118.106 38.3061 118.106 38.7591C118.106 39.2122 117.959 39.5636 117.664 39.8121V39.8134Z" fill="white"/>
<path d="M80.1494 39.2637H37.7749V40.1673H80.1494V39.2637Z" fill="white"/>
<path d="M27.1244 22.0993L23.7365 24.8479L23.7044 25.0625L26.2166 2.7461L21.3478 0.00376521V0L17.9611 2.74861V2.7461L13.0947 0.00251014L13.0935 0.0112956V0L9.70556 2.74861L9.70309 2.76367L9.70556 2.7461L4.8392 0.00251014L0 43H5.17762L9.49189 4.64878V4.64753L12.8811 1.89767L8.25553 43H13.4282L17.7474 4.64878V4.64627L21.1329 1.90018L16.5061 43H21.6837L23.5117 26.7556L26.9108 23.9982L24.7715 43H29.9492L31.9908 24.8479L27.1244 22.0993Z" fill="white"/>
</svg>
