<svg width="214" height="77" viewBox="0 0 214 77" fill="none" xmlns="http://www.w3.org/2000/svg">
<path d="M84.7004 39.8025L78.0925 51.0757L71.3736 39.8025H67.9375V57.9574H71.8334V47.2955L77.0886 56.0381H78.9588L84.2429 47.0618L84.2651 57.9574H88.161L88.1099 39.8025H84.7004Z" fill="white"/>
<path d="M106.103 48.6844C105.941 48.6148 105.77 48.5586 105.599 48.5024C106.299 48.1316 106.865 47.6326 107.283 46.9988C107.743 46.2976 107.976 45.4728 107.976 44.5221C107.976 43.104 107.407 41.9645 106.272 41.0993C105.135 40.234 103.44 39.8025 101.184 39.8025H92.4189V57.9574H101.697C104.053 57.9574 105.839 57.5214 107.054 56.6472C108.267 55.7751 108.873 54.5593 108.873 53.004C108.873 51.95 108.629 51.0577 108.142 50.3318C107.656 49.6059 106.976 49.0575 106.103 48.6844ZM100.668 42.9669C101.677 42.9669 102.45 43.1445 102.989 43.4973C103.527 43.8524 103.796 44.3828 103.796 45.093C103.796 45.8032 103.527 46.3606 102.989 46.7134C102.452 47.0685 101.679 47.2461 100.668 47.2461H96.5414V42.9669H100.668ZM103.836 54.2604C103.28 54.6155 102.463 54.793 101.388 54.793H96.5436V50.3048H101.388C102.465 50.3048 103.28 50.4914 103.836 50.8622C104.391 51.233 104.669 51.7994 104.669 52.5613C104.669 53.3232 104.391 53.9053 103.836 54.2604Z" fill="white"/>
<path d="M123.431 39.8025H119.277V57.9574H123.431V39.8025Z" fill="white"/>
<path d="M140.039 50.8173L131.118 39.8025H127.685V57.9574H131.785V46.9382L140.732 57.9574H144.141V39.8025H140.039V50.8173Z" fill="white"/>
<path d="M155.878 52.768L150.42 39.8025H145.934L153.674 57.9574H157.777L165.542 39.8025H161.417L155.878 52.768Z" fill="white"/>
<path d="M171.154 50.3835H179.483V47.1157H171.154V43.1737H180.587V39.8025H167.027V57.9574H180.921V54.5862H171.154V50.3835Z" fill="white"/>
<path d="M195.658 48.7765C195.043 48.3966 194.363 48.0932 193.619 47.8685C192.877 47.6438 192.133 47.4437 191.389 47.2707C190.645 47.0976 189.967 46.9246 189.35 46.7515C188.734 46.5785 188.239 46.3492 187.864 46.0638C187.488 45.7784 187.3 45.403 187.3 44.9356C187.3 44.5378 187.411 44.1872 187.633 43.886C187.855 43.5848 188.221 43.3376 188.734 43.1466C189.248 42.9578 189.905 42.8612 190.707 42.8612C191.509 42.8612 192.331 42.978 193.168 43.2118C194.005 43.4455 194.843 43.8051 195.68 44.2883L196.962 41.0992C196.124 40.5643 195.158 40.162 194.065 39.8923C192.97 39.6248 191.862 39.49 190.734 39.49C189.041 39.49 187.637 39.7462 186.518 40.2541C185.398 40.7643 184.561 41.4475 184.006 42.3038C183.45 43.1601 183.173 44.1063 183.173 45.1446C183.173 46.1132 183.366 46.9088 183.75 47.5291C184.135 48.1517 184.634 48.6529 185.25 49.0349C185.865 49.4147 186.544 49.7271 187.289 49.9676C188.03 50.2103 188.774 50.4126 189.519 50.5767C190.263 50.7407 190.94 50.9138 191.558 51.0958C192.173 51.2779 192.668 51.5116 193.043 51.797C193.419 52.0825 193.608 52.4668 193.608 52.95C193.608 53.3321 193.488 53.6669 193.25 53.9613C193.01 54.2558 192.639 54.485 192.135 54.6491C191.631 54.8154 190.969 54.8963 190.149 54.8963C189.072 54.8963 188.008 54.7187 186.958 54.3659C185.907 54.0108 184.996 53.5568 184.228 53.0039L182.817 56.1683C183.621 56.7909 184.679 57.2966 185.996 57.6854C187.311 58.0742 188.688 58.2697 190.123 58.2697C191.831 58.2697 193.246 58.0113 194.365 57.4921C195.485 56.9729 196.326 56.2897 196.891 55.4424C197.455 54.5951 197.737 53.6624 197.737 52.6421C197.737 51.6914 197.544 50.9048 197.159 50.2823C196.775 49.6597 196.275 49.1585 195.66 48.7765H195.658Z" fill="white"/>
<path d="M198.299 39.8025V43.2254H204.038V57.9574H208.192V43.2254H213.933V39.8025H198.299Z" fill="white"/>
<path d="M156.559 67.9921C156.961 67.6033 157.439 67.2999 157.99 67.0819C158.543 66.8661 159.14 66.756 159.782 66.756C160.424 66.756 161.001 66.8616 161.541 67.0729C162.083 67.2842 162.583 67.6168 163.045 68.073L164.042 67.0639C163.527 66.4796 162.901 66.0391 162.161 65.7469C161.421 65.4547 160.606 65.3064 159.718 65.3064C158.829 65.3064 158.036 65.4502 157.308 65.7379C156.579 66.0256 155.944 66.4324 155.402 66.9583C154.86 67.4842 154.44 68.1 154.14 68.8034C153.84 69.5091 153.689 70.2845 153.689 71.1295C153.689 71.9746 153.84 72.75 154.14 73.4557C154.44 74.1614 154.858 74.7749 155.393 75.3008C155.928 75.8267 156.561 76.2335 157.29 76.5212C158.018 76.8089 158.818 76.9527 159.684 76.9527C160.477 76.9527 161.246 76.8313 161.992 76.5864C162.738 76.3414 163.387 75.9818 163.944 75.5053V71.0666H162.401V74.7659C162.11 74.9592 161.81 75.1143 161.492 75.2222C160.941 75.4132 160.364 75.5076 159.764 75.5076C159.122 75.5076 158.527 75.3997 157.981 75.1817C157.434 74.9637 156.959 74.658 156.559 74.2625C156.157 73.8669 155.846 73.4017 155.626 72.8646C155.406 72.3274 155.298 71.7498 155.298 71.1318C155.298 70.5137 155.406 69.9204 155.626 69.3833C155.846 68.8461 156.157 68.3832 156.559 67.9921Z" fill="white"/>
<path d="M173.927 72.8873C174.624 72.5726 175.159 72.1209 175.535 71.5298C175.91 70.9387 176.097 70.2308 176.097 69.4082C176.097 68.5856 175.91 67.8732 175.535 67.2776C175.159 66.682 174.624 66.2258 173.927 65.9112C173.229 65.5965 172.39 65.4392 171.403 65.4392H167.017V76.8248H168.622V73.3615H171.403C171.65 73.3615 171.89 73.3525 172.119 73.3323L174.54 76.827H176.292L173.618 73.0086C173.722 72.9704 173.831 72.9367 173.929 72.8918L173.927 72.8873ZM171.354 71.977H168.62V66.8529H171.354C172.383 66.8529 173.162 67.0754 173.693 67.5203C174.224 67.9653 174.489 68.5946 174.489 69.406C174.489 70.2173 174.224 70.8511 173.693 71.3006C173.162 71.7501 172.383 71.9748 171.354 71.9748V71.977Z" fill="white"/>
<path d="M188.048 66.9607C187.506 66.4348 186.875 66.028 186.151 65.7404C185.427 65.4527 184.636 65.3088 183.779 65.3088C182.922 65.3088 182.113 65.4549 181.385 65.7493C180.656 66.0415 180.023 66.4505 179.488 66.9765C178.953 67.5024 178.535 68.1182 178.235 68.8239C177.935 69.5296 177.784 70.2982 177.784 71.1342C177.784 71.9703 177.935 72.7389 178.235 73.4446C178.535 74.1503 178.953 74.7639 179.488 75.292C180.023 75.8179 180.658 76.227 181.391 76.5191C182.127 76.8113 182.922 76.9596 183.779 76.9596C184.636 76.9596 185.427 76.8158 186.151 76.5281C186.875 76.2405 187.506 75.8337 188.048 75.3078C188.588 74.7819 189.008 74.1683 189.301 73.4626C189.596 72.7569 189.743 71.9815 189.743 71.1365C189.743 70.2914 189.596 69.5161 189.301 68.8104C189.005 68.1069 188.588 67.4911 188.048 66.9652V66.9607ZM187.806 72.8715C187.586 73.4019 187.282 73.8671 186.889 74.2627C186.498 74.6582 186.038 74.9661 185.507 75.1819C184.976 75.3977 184.401 75.5078 183.779 75.5078C183.157 75.5078 182.566 75.3999 182.035 75.1819C181.505 74.9661 181.04 74.6582 180.645 74.2627C180.247 73.8671 179.939 73.4042 179.721 72.8715C179.503 72.3389 179.392 71.7613 179.392 71.132C179.392 70.5027 179.501 69.9229 179.721 69.3925C179.941 68.8621 180.25 68.3991 180.645 68.0013C181.04 67.6057 181.505 67.3001 182.035 67.0821C182.566 66.8663 183.146 66.7562 183.779 66.7562C184.412 66.7562 184.976 66.8663 185.507 67.0821C186.038 67.3001 186.498 67.6057 186.889 68.0013C187.28 68.3968 187.586 68.8598 187.806 69.3925C188.026 69.9229 188.135 70.505 188.135 71.132C188.135 71.759 188.024 72.3411 187.806 72.8715Z" fill="white"/>
<path d="M200.063 71.8467C200.063 73.1143 199.787 74.0425 199.236 74.629C198.683 75.2156 197.899 75.5078 196.882 75.5078C195.865 75.5078 195.094 75.2156 194.543 74.629C193.99 74.0425 193.715 73.1165 193.715 71.8467V65.4392H192.106V71.9119C192.106 73.5593 192.531 74.8133 193.377 75.6696C194.223 76.5259 195.387 76.9552 196.864 76.9552C198.341 76.9552 199.518 76.5259 200.36 75.6696C201.202 74.8133 201.622 73.5615 201.622 71.9119V65.4392H200.063V71.8467Z" fill="white"/>
<path d="M213.436 67.2776C213.061 66.682 212.525 66.2258 211.828 65.9112C211.13 65.5965 210.291 65.4392 209.305 65.4392H204.918V76.8248H206.524V73.3772H209.305C210.291 73.3772 211.133 73.2176 211.828 72.8985C212.525 72.5794 213.061 72.1231 213.436 71.5321C213.811 70.941 213.998 70.233 213.998 69.4105C213.998 68.5879 213.811 67.8754 213.436 67.2799V67.2776ZM211.597 71.2938C211.066 71.7388 210.286 71.9591 209.258 71.9591H206.524V66.8529H209.258C210.286 66.8529 211.066 67.0753 211.597 67.5203C212.128 67.9653 212.392 68.5946 212.392 69.406C212.392 70.2173 212.128 70.8466 211.597 71.2916V71.2938Z" fill="white"/>
<path d="M144.134 70.3093H67.9316V71.9275H144.134V70.3093Z" fill="white"/>
<path d="M48.7784 39.5732L42.6858 44.4951L42.6281 44.8794L47.1459 4.91743L38.3902 0.00674236V0L32.2998 4.92192V4.91743L23.5485 0.00449491L23.5463 0.0202271V0L17.4537 4.92192L17.4493 4.94889L17.4537 4.91743L8.70242 0.00449491L0 77H9.31101L17.0694 8.32457V8.32232L23.1642 3.39815L14.8461 77H24.1482L31.9155 8.32457V8.32007L38.0037 3.40264L29.6833 77H38.9943L42.2816 47.9112L48.3942 42.9736L44.5471 77H53.8582L57.5297 44.4951L48.7784 39.5732Z" fill="white"/>
</svg>
