<svg width="130" height="95" viewBox="0 0 130 95" fill="none" xmlns="http://www.w3.org/2000/svg">
<path d="M65.5555 95L96.9445 27.9412L101.389 54.2059C93.9815 54.2059 87.8704 51.7843 83.0556 46.9412C78.2408 42.2843 75.8333 36.3235 75.8333 29.0588C75.8333 20.3039 78.7037 13.2255 84.4445 7.82351C90 2.60782 96.7593 -1.05354e-05 104.722 -9.83925e-06C112.13 -9.19167e-06 118.241 2.32843 123.056 6.9853C127.685 11.6422 130 17.6961 130 25.1471C130 29.2451 129.259 33.0637 127.778 36.603C126.296 40.3284 123.889 44.799 120.556 50.0147L92.7778 95L65.5555 95ZM0 95L31.3889 27.9412L35.8333 54.2059C28.4259 54.2059 22.3148 51.7843 17.5 46.9412C12.6852 42.2843 10.2778 36.3235 10.2778 29.0588C10.2778 20.3039 13.1482 13.2255 18.8889 7.82351C24.4445 2.60782 31.2037 -1.62664e-05 39.1667 -1.55703e-05C46.5741 -1.49227e-05 52.6852 2.32842 57.5 6.98529C62.1296 11.6422 64.4444 17.6961 64.4444 25.1471C64.4444 29.2451 63.7037 33.0637 62.2222 36.6029C60.7408 40.3284 58.3333 44.799 55 50.0147L27.2222 95L0 95Z" fill="white" fill-opacity="0.28"/>
</svg>
