<svg width="130" height="95" viewBox="0 0 130 95" fill="none" xmlns="http://www.w3.org/2000/svg">
<path d="M64.4445 0L33.0556 67.0588L28.6111 40.7941C36.0185 40.7941 42.1296 43.2157 46.9444 48.0588C51.7593 52.7157 54.1667 58.6765 54.1667 65.9412C54.1667 74.6961 51.2963 81.7745 45.5556 87.1765C40 92.3922 33.2407 95 25.2778 95C17.8704 95 11.7593 92.6716 6.94444 88.0147C2.31481 83.3578 0 77.3039 0 69.8529C0 65.7549 0.740739 61.9363 2.22222 58.397C3.7037 54.6716 6.11111 50.201 9.44444 44.9853L37.2222 0L64.4445 0ZM130 0L98.6111 67.0588L94.1667 40.7941C101.574 40.7941 107.685 43.2157 112.5 48.0588C117.315 52.7157 119.722 58.6765 119.722 65.9412C119.722 74.6961 116.852 81.7745 111.111 87.1765C105.556 92.3922 98.7963 95 90.8333 95C83.4259 95 77.3148 92.6716 72.5 88.0147C67.8704 83.3578 65.5556 77.3039 65.5556 69.8529C65.5556 65.7549 66.2963 61.9363 67.7778 58.397C69.2593 54.6716 71.6667 50.201 75 44.9853L102.778 0L130 0Z" fill="white" fill-opacity="0.28"/>
</svg>
